:SAMPLES-PER-SECOND 30
:FULLY-SPECIFIED
:DEGREES
1679
root  -20.2642 39.2604 21.6135 150.406 -89.411 -160.52
RightUpLeg  -5.9765 -10.2246 -1.8365
RightLeg  17.3844 -0.72338 1.03458
RightFoot  -2.75862 0.134501 -2.03893
RightToes  -1.33073e-015 0 -3.6325e-017
Spine  14.0449 -3.22411 8.81795
Spine1  8.59306 -1.6226 0.0168342
HEad  -1.83182 -5.20914 -6.3154
LeftShoulder1  0.315465 2.55884 -27.1833
LeftArm  1.24782 -1.75674 -50.8519
LeftForeArm  14.9048 -15.6997 -6.55758
LeftHand  -0.118997 3.39279 5.97358
RightShoulder  -0.188253 -4.0919 24.338
RightArm  14.3752 -14.2231 42.8049
RightForeArm  8.86745 10.4452 6.58675
RightHand  -0.151143 1.65352 -2.64535
LeftUpLeg  -0.259718 1.40627 6.04941
LeftLeg  38.7862 -1.58935 -0.999558
LeftFoot  -11.0001 0.091928 -8.18713
LeftToes  -1.93726e-010 2.42366e-011 2.16268e-013
1680
root  -19.2525 39.1055 21.8234 145.775 -89.0448 -156.012
RightUpLeg  -7.64831 -10.0569 -1.57068
RightLeg  17.2923 -0.65602 0.986653
RightFoot  -0.928765 0.178689 -2.0265
RightToes  -1.33073e-015 0 -3.6325e-017
Spine  13.9577 -3.44459 7.45157
Spine1  8.54167 -2.25528 1.03593
HEad  -0.361374 -4.65237 -5.90866
LeftShoulder1  0.312639 2.5577 -26.8659
LeftArm  4.84754 -2.56952 -51.7989
LeftForeArm  13.0048 -18.8384 -5.45146
LeftHand  -0.067807 4.16662 4.76677
RightShoulder  -0.161339 -4.00905 23.942
RightArm  14.6886 -14.7062 42.7644
RightForeArm  7.17667 12.5457 6.08072
RightHand  -0.111438 1.82028 -1.9583
LeftUpLeg  3.61097 1.92187 6.55999
LeftLeg  37.9683 -3.95324 -2.9367
LeftFoot  -11.1071 0.0802198 -9.3425
LeftToes  -1.93726e-010 2.42366e-011 2.16268e-013
1681
root  -18.1858 38.9566 22.0548 160.346 -88.707 -170.208
RightUpLeg  -9.74801 -9.82482 -1.57911
RightLeg  16.7251 -0.435459 1.017
RightFoot  1.19077 0.217948 -1.91224
RightToes  -1.33073e-015 0 -3.6325e-017
Spine  13.4539 -3.43929 5.82842
Spine1  8.56728 -2.78671 2.02577
HEad  0.738541 -4.99588 -5.42896
LeftShoulder1  0.309177 2.57222 -27.0116
LeftArm  8.00293 -3.64502 -52.1341
LeftForeArm  12.1471 -21.708 -4.54889
LeftHand  -0.125694 2.56106 4.67286
RightShoulder  -0.0965973 -3.80651 23.0624
RightArm  13.4409 -15.0596 43.5142
RightForeArm  5.84815 14.7628 5.228
RightHand  -0.0854867 2.15531 -1.49352
LeftUpLeg  7.02288 2.34592 6.44775
LeftLeg  35.498 -6.76019 -4.78845
LeftFoot  -12.9852 -0.0651425 -10.3294
LeftToes  -1.93726e-010 2.42366e-011 2.16268e-013
1682
root  -17.0949 38.881 22.2684 171.114 -88.657 179.402
RightUpLeg  -11.0633 -9.51052 -1.81569
RightLeg  14.7145 -0.696418 1.09936
RightFoot  3.73307 0.213348 -1.42309
RightToes  -1.33073e-015 0 -3.6325e-017
Spine  13.2748 -3.4506 3.92797
Spine1  8.00943 -3.32919 2.44707
HEad  2.02992 -5.13658 -5.05522
LeftShoulder1  0.289192 2.62487 -26.7553
LeftArm  8.14398 -5.02545 -52.7214
LeftForeArm  15.3565 -23.874 -4.28341
LeftHand  -0.0811618 2.97304 3.27344
RightShoulder  -0.11284 -3.85863 23.2614
RightArm  12.8597 -14.5231 43.5651
RightForeArm  3.91411 16.7486 4.8062
RightHand  -0.109531 2.84775 -1.76557
LeftUpLeg  10.0403 2.18202 5.77751
LeftLeg  30.68 -8.87817 -5.33208
LeftFoot  -15.9495 -0.203477 -7.55
LeftToes  -1.93726e-010 2.42366e-011 2.16268e-013
1683
root  -15.8909 38.8083 22.4664 -164.325 -88.6563 155.014
RightUpLeg  -11.916 -9.09489 -2.52621
RightLeg  12.0373 -1.34935 1.00779
RightFoot  5.69992 0.0663382 -0.189324
RightToes  -1.33073e-015 0 -3.6325e-017
Spine  13.7289 -3.19028 0.918379
Spine1  7.39453 -3.92867 3.76442
HEad  2.9986 -5.82399 -4.48146
LeftShoulder1  0.242171 2.77645 -27.1731
LeftArm  8.55039 -6.76703 -52.6493
LeftForeArm  16.6082 -26.0403 -4.69989
LeftHand  -0.0781681 3.42818 3.58772
RightShoulder  -0.11493 -3.86807 22.9952
RightArm  11.1496 -13.4237 44.3422
RightForeArm  3.88828 18.5408 4.43638
RightHand  -0.101005 3.07904 -1.61446
LeftUpLeg  11.6508 1.62616 4.18699
LeftLeg  24.3986 -7.97625 -3.63813
LeftFoot  -19.6079 -0.220481 -4.61981
LeftToes  -1.93726e-010 2.42366e-011 2.16268e-013
1684
root  -14.5729 38.755 22.6396 -134.811 -87.6023 125.354
RightUpLeg  -12.3311 -8.96608 -3.83793
RightLeg  8.96316 -1.43347 0.97532
RightFoot  6.2629 -0.248412 1.88442
RightToes  -1.33073e-015 0 -3.6325e-017
Spine  14.8093 -2.7535 -2.31198
Spine1  7.14385 -4.00738 3.69014
HEad  3.43881 -7.72389 -2.88307
LeftShoulder1  0.304755 2.55569 -25.9095
LeftArm  7.36426 -8.02495 -53.4948
LeftForeArm  17.8039 -27.6111 -4.99273
LeftHand  -0.112966 2.86867 4.71441
RightShoulder  -0.179083 -4.07269 23.7879
RightArm  9.57908 -11.1671 45.3017
RightForeArm  4.25633 19.6565 4.32282
RightHand  -0.0999008 3.27229 -1.57897
LeftUpLeg  11.4832 2.07081 1.57446
LeftLeg  20.7408 -4.21086 -1.42253
LeftFoot  -20.0176 0.0625432 -0.710861
LeftToes  -1.93726e-010 2.42366e-011 2.16268e-013
1685
root  -13.2252 38.7361 22.7404 -133.533 -86.1577 123.809
RightUpLeg  -12.2863 -8.60234 -4.74136
RightLeg  5.41452 -1.26151 0.987557
RightFoot  4.93943 -0.414075 3.12311
RightToes  -1.33073e-015 0 -3.6325e-017
Spine  16.0415 -1.94324 -5.26323
Spine1  7.0775 -3.66049 3.8374
HEad  4.70847 -10.4209 -1.69885
LeftShoulder1  0.303568 2.55616 -25.817
LeftArm  6.4116 -9.08481 -52.7125
LeftForeArm  19.0922 -29.4449 -5.3419
LeftHand  -0.0957742 3.62834 5.2298
RightShoulder  -0.1589 -4.0089 23.5362
RightArm  6.94201 -9.39737 47.427
RightForeArm  6.37711 20.3468 4.18216
RightHand  -0.0956766 3.36951 -1.51708
LeftUpLeg  10.1136 2.1431 -0.462518
LeftLeg  19.648 -1.78391 -0.368081
LeftFoot  -19.4442 0.177763 0.845585
LeftToes  -1.93726e-010 2.42366e-011 2.16268e-013
1686
root  -11.9763 38.7401 22.782 -140.694 -84.7738 131.353
RightUpLeg  -12.2912 -8.28873 -4.97367
RightLeg  1.53411 -1.11025 1.13673
RightFoot  1.47787 -0.649531 6.05396
RightToes  -1.33073e-015 0 -3.6325e-017
Spine  16.0763 -1.02671 -6.97582
Spine1  7.07439 -2.80931 3.38137
HEad  6.79666 -13.2138 -0.991394
LeftShoulder1  0.333374 2.47593 -26.2506
LeftArm  6.22493 -9.89423 -51.4155
LeftForeArm  18.3244 -29.5832 -5.41868
LeftHand  -0.124822 2.82892 5.14972
RightShoulder  -0.133555 -3.92887 23.1836
RightArm  5.94106 -8.55754 49.3244
RightForeArm  7.67584 21.653 4.2661
RightHand  -0.147713 2.93427 -2.28815
LeftUpLeg  6.99464 3.65866 -0.887533
LeftLeg  21.1088 -2.35506 -0.668366
LeftFoot  -18.4507 0.130184 0.320916
LeftToes  -1.93726e-010 2.42366e-011 2.16268e-013
1687
root  -10.8678 38.8078 22.825 -143.985 -83.6472 135.102
RightUpLeg  -12.2125 -8.94262 -5.42841
RightLeg  -0.702981 -2.55646 2.02117
RightFoot  -1.00853 -1.03836 11.2363
RightToes  -1.33073e-015 0 -3.6325e-017
Spine  15.8424 -0.716294 -6.69411
Spine1  6.82272 -1.73983 0.708609
HEad  9.65161 -16.7987 -0.305618
LeftShoulder1  0.367005 2.36285 -25.9612
LeftArm  5.4219 -9.55472 -50.4097
LeftForeArm  18.4551 -28.9892 -5.27206
LeftHand  -0.112515 2.34477 3.87722
RightShoulder  -0.197273 -4.13119 23.8692
RightArm  8.57202 -7.53996 50.1319
RightForeArm  6.73285 22.2936 4.45742
RightHand  -0.228355 3.51705 -3.18581
LeftUpLeg  4.49361 4.89076 -1.24558
LeftLeg  21.4506 -2.55997 -0.773278
LeftFoot  -16.7345 0.115157 0.305703
LeftToes  -1.93726e-010 2.42366e-011 2.16268e-013
1688
root  -9.83401 39.0647 22.8508 -154.508 -82.7909 146.139
RightUpLeg  -13.0274 -8.9532 -4.83497
RightLeg  1.47468 -5.1536 2.40123
RightFoot  -0.550529 -0.984456 10.3508
RightToes  -1.33073e-015 0 -3.6325e-017
Spine  15.9268 -0.615776 -4.70681
Spine1  6.04575 -0.731174 -1.96018
HEad  11.2169 -18.4805 0.374725
LeftShoulder1  0.258559 2.70666 -26.2423
LeftArm  4.81481 -7.66646 -48.7772
LeftForeArm  17.0809 -28.1402 -5.15109
LeftHand  -0.140064 2.01657 4.55503
RightShoulder  -0.166287 -4.03279 23.608
RightArm  11.5539 -7.38327 51.2081
RightForeArm  6.29503 23.0849 4.63053
RightHand  -0.349607 4.9767 -4.22421
LeftUpLeg  3.13164 5.61999 -0.705886
LeftLeg  19.7378 -1.98761 -0.451928
LeftFoot  -14.2361 0.0873906 0.0842664
LeftToes  -1.93726e-010 2.42366e-011 2.16268e-013
1689
root  -8.90039 39.3015 22.8077 -162.166 -82.0989 154.013
RightUpLeg  -13.6158 -9.98274 -4.3672
RightLeg  6.16195 -4.89552 1.71396
RightFoot  -1.11167 -0.846276 9.35503
RightToes  -1.33073e-015 0 -3.6325e-017
Spine  15.8121 -0.448757 -3.56044
Spine1  5.88609 -0.0918887 -3.37195
HEad  12.1619 -20.7418 0.970993
LeftShoulder1  0.225465 2.81569 -26.5708
LeftArm  3.21373 -4.85807 -47.5131
LeftForeArm  15.2755 -26.6687 -4.90442
LeftHand  -0.173439 1.63527 5.11743
RightShoulder  -0.125794 -3.90144 23.3253
RightArm  14.2584 -7.17255 51.6118
RightForeArm  8.00767 24.4348 4.81056
RightHand  -0.245341 4.16223 -3.25055
LeftUpLeg  2.5385 7.12004 0.387863
LeftLeg  17.5487 -2.65727 -0.655177
LeftFoot  -11.9086 0.070897 -0.237766
LeftToes  -1.93726e-010 2.42366e-011 2.16268e-013
1690
root  -8.0332 39.4791 22.7066 -165.158 -82.4753 157.41
RightUpLeg  -14.0296 -13.0935 -4.10077
RightLeg  11.891 -2.51426 0.298741
RightFoot  -1.99157 -0.758976 9.09486
RightToes  -1.33073e-015 0 -3.6325e-017
Spine  15.2423 -0.678844 -3.18575
Spine1  6.0196 -0.226375 -3.70313
HEad  12.1824 -23.1825 2.05171
LeftShoulder1  0.248694 2.7397 -26.3469
LeftArm  1.83012 -1.77492 -46.9888
LeftForeArm  12.8119 -23.8146 -4.48932
LeftHand  -0.220655 1.43598 6.39819
RightShoulder  -0.112688 -3.86095 23.0429
RightArm  16.6866 -6.91152 51.5555
RightForeArm  8.93565 25.6876 5.04058
RightHand  -0.196784 3.04694 -2.9308
LeftUpLeg  1.57774 7.22369 1.20848
LeftLeg  15.6855 -3.18533 -0.762131
LeftFoot  -9.9204 0.0694009 -0.828152
LeftToes  -1.93726e-010 2.42366e-011 2.16268e-013
1691
root  -7.17957 39.5613 22.5331 -168.998 -83.8061 161.232
RightUpLeg  -13.4536 -13.7396 -4.85832
RightLeg  18.0441 -1.6977 -0.933016
RightFoot  -2.84167 -0.621973 8.08127
RightToes  -1.33073e-015 0 -3.6325e-017
Spine  15.8923 -0.963513 -2.96976
Spine1  5.06069 -0.78281 -2.89944
HEad  12.3529 -26.0781 3.01088
LeftShoulder1  0.260121 2.70886 -26.5296
LeftArm  0.828344 1.19886 -45.8852
LeftForeArm  11.1925 -20.3019 -4.72669
LeftHand  -0.129908 3.25638 6.3439
RightShoulder  -0.145059 -3.97075 23.0623
RightArm  17.3633 -7.55372 50.7934
RightForeArm  8.73623 26.9776 5.34347
RightHand  -0.270613 4.07931 -3.59367
LeftUpLeg  0.478073 7.64431 2.63225
LeftLeg  15.0345 -4.88427 -1.21068
LeftFoot  -8.64848 0.0893445 -1.57479
LeftToes  -1.93726e-010 2.42366e-011 2.16268e-013
1692
root  -6.38315 39.5506 22.2987 -167.198 -84.3234 159.423
RightUpLeg  -12.5744 -10.487 -7.41873
RightLeg  24.3897 -2.86567 -1.64038
RightFoot  -4.0514 -0.473868 7.01066
RightToes  -1.33073e-015 0 -3.6325e-017
Spine  15.7409 -0.848621 -3.51103
Spine1  4.9319 -0.937589 -2.2935
HEad  12.4048 -25.244 2.76427
LeftShoulder1  0.275319 2.66369 -26.5889
LeftArm  -2.17368 3.694 -44.7699
LeftForeArm  13.4651 -15.9893 -5.9208
LeftHand  -0.0545657 4.71107 5.83308
RightShoulder  -0.15789 -4.01405 23.0452
RightArm  16.0084 -8.49395 50.3481
RightForeArm  9.1088 27.9328 5.54344
RightHand  -0.271725 3.70659 -3.72207
LeftUpLeg  -0.609895 7.82702 3.0601
LeftLeg  14.5834 -5.41042 -1.33968
LeftFoot  -7.86043 0.137723 -2.99536
LeftToes  -1.93726e-010 2.42366e-011 2.16268e-013
1693
root  -5.62042 39.4757 22.0295 -163.718 -84.7392 155.658
RightUpLeg  -10.9458 -7.63722 -9.9586
RightLeg  30.1326 -3.59494 -2.48125
RightFoot  -5.39603 -0.399604 6.98225
RightToes  -1.33073e-015 0 -3.6325e-017
Spine  15.2584 -0.545898 -3.99243
Spine1  5.57314 -0.858921 -1.87159
HEad  12.0312 -25.2221 3.40402
LeftShoulder1  0.230826 2.80339 -26.7639
LeftArm  -5.21266 5.45603 -43.6991
LeftForeArm  16.903 -11.6188 -6.95883
LeftHand  -0.00181656 5.9876 4.80204
RightShoulder  -0.230004 -4.24925 23.4718
RightArm  14.6334 -8.67241 49.6876
RightForeArm  8.78627 27.5731 5.47814
RightHand  -0.253837 3.6533 -3.51048
LeftUpLeg  -1.6064 8.03186 3.43203
LeftLeg  14.66 -6.1372 -1.58771
LeftFoot  -7.59018 0.20129 -4.76138
LeftToes  -1.93726e-010 2.42366e-011 2.16268e-013
